Vampire Effect 2003 DVDrip(Dual Audio) Xvid fasamoo LKRG

RIPPER                           : fasamoo
Format                           : AVI
Format/Info                      : Audio Video Interleave
File size                        : 800 MiB
Duration                         : 1h 28mn
Overall bit rate                 : 1 269 Kbps
Writing application              : VirtualDubMod 1.5.4.1 (build 2178/release)
Writing library                  : VirtualDubMod build 2178/release
Language                         : Dual Audio(Chinese,English)
Subtitles                        : English (*.srt) | English | Spanish |French(*.idx,*.sub)
Genre                            : Action | Adventure | Comedy | Horror

Video
ID                               : 0
Format                           : MPEG-4 Visual
Format profile                   : Advanced Simple@L5
Format settings, BVOP            : Yes
Format settings, QPel            : No
Format settings, GMC             : No warppoints
Format settings, Matrix          : Custom
Codec ID                         : XVID
Codec ID/Hint                    : XviD
Duration                         : 1h 28mn
Bit rate                         : 1 019 Kbps
Width                            : 592 pixels
Height                           : 320 pixels
Display aspect ratio             : 1.850
Frame rate                       : 23.976 fps
Color space                      : YUV
Chroma subsampling               : 4:2:0
Bit depth                        : 8 bits
Scan type                        : Progressive
Bits/(Pixel*Frame)               : 0.224
Stream size                      : 643 MiB (80%)
Writing library                  : XviD 1.2.1 (UTC 2008-12-04)

Audio #1
ID                               : 1
Format                           : MPEG Audio
Format version                   : Version 1
Format profile                   : Layer 3
Mode                             : Joint stereo
Mode extension                   : MS Stereo
Codec ID                         : 55
Codec ID/Hint                    : MP3
Duration                         : 1h 28mn
Bit rate mode                    : Variable
Bit rate                         : 114 Kbps
Nominal bit rate                 : 128 Kbps
Channel(s)                       : 2 channels
Sampling rate                    : 48.0 KHz
Stream size                      : 72.1 MiB (9%)
Alignment                        : Aligned on interleaves
Interleave, duration             : 24 ms (0.58 video frame)
Interleave, preload duration     : 161 ms
Writing library                  : LAME3.98r
Encoding settings                : -m j -V 4 -q 2 -lowpass 17 --abr 128
Language                         : Chinese

Audio #2
ID                               : 2
Format                           : MPEG Audio
Format version                   : Version 1
Format profile                   : Layer 3
Mode                             : Joint stereo
Mode extension                   : MS Stereo
Codec ID                         : 55
Codec ID/Hint                    : MP3
Duration                         : 1h 28mn
Bit rate mode                    : Variable
Bit rate                         : 115 Kbps
Nominal bit rate                 : 128 Kbps
Channel(s)                       : 2 channels
Sampling rate                    : 48.0 KHz
Stream size                      : 72.5 MiB (9%)
Alignment                        : Aligned on interleaves
Interleave, duration             : 24 ms (0.58 video frame)
Interleave, preload duration     : 160 ms
Writing library                  : LAME3.98r
Encoding settings                : -m j -V 4 -q 2 -lowpass 17 --abr 128
Language                         : English

                                 PLOT

Eastern pop music sensation the Twins (Charlene Choi and Gillian Chung) star in this action/comedy/horror yarn about an evil Duke's attempt to kill...  Eastern pop music sensation the Twins (Charlene Choi and Gillian Chung) star in this action/comedy/horror yarn about an evil Duke's attempt to kill and collect the blood of a royal family of European vampires in order to become all powerful. The only surviving member of the family travels to Hong Kong, only to complicate his struggle by falling in love with a mortal girl who just happens to have two vampire hunters for brothers. Jackie Chan makes a cameo appearance.


                                 IMBD
                     
                    http://www.imdb.com/title/tt0351887/
 
http://leetleech.org/images/75411678072959829552.png 
http://leetleech.org/images/40867058608090908703.png 
http://leetleech.org/images/27356193593407248059.png 
http://leetleech.org/images/24299999941385664344.png 
http://leetleech.org/images/42899095478576155695.png